<?xml version="1.0" encoding="UTF-8" standalone="no"?>
<svg xmlns:dc="http://purl.org/dc/elements/1.1/" xmlns:cc="http://creativecommons.org/ns#" xmlns:rdf="http://www.w3.org/1999/02/22-rdf-syntax-ns#" xmlns:svg="http://www.w3.org/2000/svg" xmlns="http://www.w3.org/2000/svg" xml:space="preserve" enable-background="new 0 0 395.241 181.333" viewBox="0 0 138 44.000002" height="44" width="138" y="0px" x="0px" id="Layer_1" version="1.1">
  <metadata id="metadata127">
    <rdf:RDF>
      <cc:Work rdf:about="">
        <dc:format>image/svg+xml</dc:format>
        <dc:type rdf:resource="http://purl.org/dc/dcmitype/StillImage"/>
        <dc:title/>
      </cc:Work>
    </rdf:RDF>
  </metadata>
  <defs id="defs125"/>
  <g transform="matrix(0.45300708,0,0,0.45300708,-20.523486,-17.662419)" id="g3">
    <path style="fill:#332d37" id="path5" d="m 153.333,105.442 c -8.078,0 -12.837,-3.508 -12.837,-10.209 0,-8.143 8.017,-11.273 18.909,-12.332 l 0,-2.07 c 0,-4.635 -2.504,-6.697 -7.2,-6.697 -2.943,0 -6.138,0.877 -8.454,2.129 l -1.315,-3.379 c 2.819,-1.445 6.638,-2.443 10.269,-2.443 7.327,0 11.837,3.439 11.837,10.957 l 0,21.664 c -2.692,1.442 -6.702,2.38 -11.209,2.38 z m 6.072,-19.666 c -8.577,1.004 -13.649,3.385 -13.649,9.332 0,4.574 2.815,7.137 8.078,7.137 2.13,0 4.257,-0.441 5.571,-1.129 l 0,-15.34 z"/>
    <path style="fill:#332d37" id="path7" d="m 190.985,104.811 0,-23.291 c 0,-5.068 -2.068,-7.58 -7.578,-7.58 -2.317,0 -4.195,0.381 -5.951,1.131 l 0,29.74 -5.506,0 0,-31.994 c 3.129,-1.438 7.262,-2.377 11.457,-2.377 9.078,0 13.087,3.941 13.087,11.08 l 0,23.291 -5.509,0 z"/>
    <path style="fill:#332d37" id="path9" d="m 212.15,105.127 c -4.82,0 -8.076,-2.941 -8.076,-8.516 l 0,-22.103 -3.881,0 0,-3.445 3.881,0 0,-7.76 5.51,-1.695 0,9.455 5.887,0 0,3.445 -5.887,0 0,22.104 c 0,2.939 1.438,4.695 4.195,4.695 0.627,0 1.189,-0.061 1.691,-0.25 l 0,3.508 c -0.874,0.379 -2.005,0.562 -3.32,0.562 z"/>
    <path style="fill:#332d37" id="path11" d="m 258.482,104.811 0,-23.539 c 0,-4.447 -2.004,-7.332 -6.949,-7.332 -2.756,0 -4.947,1.254 -6.574,3.199 l 0,27.672 -5.451,0 0,-24.416 c 0,-3.881 -2.127,-6.455 -7.135,-6.455 -2.568,0 -4.445,0.318 -6.326,1.131 l 0,29.74 -5.447,0 0,-31.994 c 3.256,-1.438 7.014,-2.377 11.584,-2.377 5.072,0 7.949,1.377 10.145,3.941 2.252,-2.441 5.697,-3.941 9.705,-3.941 8.27,0 11.896,4.445 11.896,10.895 l 0,23.477 -5.448,0 z"/>
    <path style="fill:#332d37" id="path13" d="m 271.393,104.811 0,-11.993 0,-10.417 0,-11.338 2.979,0 2.529,0 0,8.588 0,8.168 0,16.992 -2.695,0 -2.813,0 z"/>
    <path style="fill:#332d37" id="path15" d="m 295.117,105.442 c -8.141,0 -13.088,-7.205 -13.088,-17.535 0,-10.328 5.01,-17.467 13.088,-17.467 3.131,0 5.756,0.814 7.576,2.186 l -1.314,3.262 c -1.316,-1.002 -3.32,-1.695 -5.326,-1.695 -5.383,0 -8.387,5.828 -8.387,13.592 0,7.637 3.066,13.65 8.387,13.65 2.006,0 3.947,-0.627 5.26,-1.625 l 1.381,3.439 c -1.821,1.378 -4.446,2.193 -7.577,2.193 z"/>
    <path style="fill:#332d37" id="path17" d="m 321.221,74.758 c -0.998,-0.377 -2.191,-0.566 -3.441,-0.566 -1.504,0 -3.068,0.254 -4.262,0.879 l 0,29.74 -5.51,0 0,-31.994 c 2.881,-1.438 6.703,-2.377 11.521,-2.377 1.256,0 2.633,0.121 2.943,0.182 l -1.251,4.136 z"/>
    <path style="fill:#332d37" id="path19" d="m 336.598,105.442 c -9.145,0 -13.338,-7.387 -13.338,-17.535 0,-10.078 4.193,-17.467 13.338,-17.467 9.143,0 13.338,7.389 13.338,17.467 0,10.148 -4.196,17.535 -13.338,17.535 z m 0,-31.502 c -5.883,0 -7.83,6.33 -7.83,13.844 0,7.514 1.947,13.961 7.83,13.961 5.889,0 7.826,-6.447 7.826,-13.961 0,-7.514 -1.938,-13.844 -7.826,-13.844 z"/>
    <g id="g21">
      <path style="fill:#332d37" id="path23" d="m 88.315,88.419 5.828,0 3.505,0 c 0.314,1.152 1.366,1.981 2.633,1.981 1.51,0 2.732,-1.178 2.732,-2.686 0,-1.511 -1.222,-2.784 -2.732,-2.784 -1.267,0 -2.325,0.899 -2.635,2.08 l -4.672,0 -4.659,0.002 0,-3.997 4.338,0 c 0,0 0.361,0.038 0.578,-0.135 0.39,-0.303 1.386,-1.269 1.386,-1.269 l 2.737,-2.739 c 0.376,0.201 0.801,0.323 1.258,0.323 1.513,0 2.737,-1.227 2.737,-2.737 0,-1.512 -1.224,-2.736 -2.737,-2.736 -1.51,0 -2.735,1.225 -2.735,2.736 0,0.541 0.162,1.041 0.432,1.466 l -3.195,3.198 c 0,0 -0.396,0.381 -0.554,0.444 -0.093,0.04 -0.33,0.038 -0.33,0.038 l -3.915,0 0,-1.709 0,-4.39 c 1.787,-0.334 3.145,-1.897 3.145,-3.779 0,-2.126 -1.728,-3.851 -3.849,-3.851 -2.126,0 -3.854,1.725 -3.854,3.851 0,1.882 1.36,3.445 3.147,3.779 l 0,6.099 -3.917,0 c 0,0 -0.237,0.002 -0.33,-0.038 C 82.5,81.503 82.106,81.122 82.106,81.122 L 78.909,77.924 C 79.179,77.5 79.34,77 79.34,76.459 c 0,-1.512 -1.225,-2.736 -2.735,-2.736 -1.512,0 -2.736,1.225 -2.736,2.736 0,1.511 1.224,2.737 2.736,2.737 0.457,0 0.881,-0.122 1.258,-0.323 l 2.741,2.739 c 0,0 0.992,0.966 1.382,1.269 0.221,0.173 0.58,0.135 0.58,0.135 l 4.338,0 0,2.8 0,1.197 -4.431,-0.002 -4.902,0 c -0.31,-1.181 -1.364,-2.08 -2.63,-2.08 -1.515,0 -2.737,1.273 -2.737,2.784 0,1.508 1.222,2.686 2.737,2.686 1.262,0 2.315,-0.829 2.63,-1.981 l 4.942,0 4.391,0 0,3.896 -4.338,0 c 0,0 -0.359,-0.04 -0.58,0.133 -0.39,0.306 -1.382,1.271 -1.382,1.271 l -2.741,2.736 c -0.377,-0.201 -0.802,-0.323 -1.258,-0.323 -1.512,0 -2.736,1.228 -2.736,2.737 0,1.513 1.224,2.736 2.736,2.736 1.511,0 2.735,-1.224 2.735,-2.736 0,-0.54 -0.162,-1.041 -0.432,-1.466 l 3.197,-3.197 c 0,0 0.394,-0.382 0.551,-0.445 0.093,-0.039 0.33,-0.038 0.33,-0.038 l 3.917,0 0,2.799 0,3.302 c -1.787,0.332 -3.147,1.897 -3.147,3.78 0,2.123 1.728,3.851 3.854,3.851 2.121,0 3.849,-1.728 3.849,-3.851 0,-1.883 -1.357,-3.445 -3.145,-3.78 l 0,-6.101 3.915,0 c 0,0 0.237,-0.001 0.33,0.038 0.157,0.063 0.554,0.445 0.554,0.445 l 3.195,3.197 c -0.27,0.425 -0.432,0.926 -0.432,1.466 0,1.513 1.225,2.736 2.735,2.736 1.513,0 2.737,-1.224 2.737,-2.736 0,-1.51 -1.224,-2.737 -2.737,-2.737 -0.457,0 -0.881,0.122 -1.258,0.323 L 94.616,93.72 c 0,0 -0.996,-0.966 -1.386,-1.271 -0.217,-0.173 -0.578,-0.133 -0.578,-0.133 l -4.338,0 0,-2.333 0,-1.564 z m 11.961,-2.09 c 0.74,0 1.342,0.601 1.342,1.338 0,0.737 -0.602,1.34 -1.342,1.34 -0.735,0 -1.337,-0.603 -1.337,-1.34 0,-0.737 0.602,-1.338 1.337,-1.338 z M 98.613,75.121 c 0.738,0 1.337,0.598 1.337,1.337 0,0.739 -0.6,1.338 -1.337,1.338 -0.739,0 -1.339,-0.599 -1.339,-1.338 0,-0.739 0.6,-1.337 1.339,-1.337 z m -22.009,2.674 c -0.738,0 -1.337,-0.599 -1.337,-1.338 0,-0.739 0.6,-1.337 1.337,-1.337 0.739,0 1.34,0.598 1.34,1.337 0,0.739 -0.601,1.338 -1.34,1.338 z m -1.668,11.211 c -0.736,0 -1.337,-0.603 -1.337,-1.34 0,-0.737 0.602,-1.338 1.337,-1.338 0.74,0 1.342,0.601 1.342,1.338 0,0.737 -0.602,1.34 -1.342,1.34 z m 1.668,11.203 c -0.738,0 -1.337,-0.598 -1.337,-1.337 0,-0.739 0.6,-1.337 1.337,-1.337 0.739,0 1.34,0.598 1.34,1.337 0,0.739 -0.601,1.337 -1.34,1.337 z m 22.009,-2.673 c 0.738,0 1.337,0.598 1.337,1.337 0,0.739 -0.6,1.337 -1.337,1.337 -0.739,0 -1.339,-0.598 -1.339,-1.337 0,-0.739 0.6,-1.337 1.339,-1.337 z m -11.002,8.501 c -1.342,0 -2.434,-1.091 -2.434,-2.432 0,-1.342 1.092,-2.435 2.434,-2.435 1.341,0 2.432,1.093 2.432,2.435 -0.001,1.341 -1.091,2.432 -2.432,2.432 z m 0,-36.743 c 1.341,0 2.432,1.092 2.432,2.434 0,1.341 -1.091,2.432 -2.432,2.432 -1.342,0 -2.434,-1.091 -2.434,-2.432 0,-1.342 1.092,-2.434 2.434,-2.434 z"/>
      <linearGradient y2="63.495499" x2="54.0117" y1="107.2876" x1="54.0117" gradientUnits="userSpaceOnUse" id="SVGID_1_">
        <stop id="stop26" style="stop-color:#2A2B31" offset="0"/>
        <stop id="stop28" style="stop-color:#3A3E44" offset="0.0235"/>
        <stop id="stop30" style="stop-color:#596168" offset="0.0755"/>
        <stop id="stop32" style="stop-color:#738088" offset="0.1331"/>
        <stop id="stop34" style="stop-color:#889BA3" offset="0.1951"/>
        <stop id="stop36" style="stop-color:#9AB1BA" offset="0.2629"/>
        <stop id="stop38" style="stop-color:#A8C4CC" offset="0.3384"/>
        <stop id="stop40" style="stop-color:#B3D2DA" offset="0.425"/>
        <stop id="stop42" style="stop-color:#BBDCE4" offset="0.5293"/>
        <stop id="stop44" style="stop-color:#BFE2EA" offset="0.6697"/>
        <stop id="stop46" style="stop-color:#C0E4EB" offset="1"/>
      </linearGradient>
      <path style="fill:url(#SVGID_1_)" id="path48" d="m 62.718,52.813 -14.523,8.385 c -1.713,0.854 -2.89,2.619 -2.89,4.662 0,0.158 0.01,0.312 0.023,0.465 l 0,21.07 0,0.546 0,3.604 c 3.906,5.607 9.736,10.521 16.025,13.224 -0.044,-0.045 -0.535,-0.544 -0.577,-0.592 -0.436,-0.498 -0.732,-1.12 -0.82,-1.809 -0.018,-0.14 -0.02,-0.632 -0.01,-0.731 l 0,-0.235 0,-13.726 0,-0.014 0,-13.962 c -0.01,-0.1 -0.017,-0.201 -0.017,-0.303 0,-0.357 0.058,-0.699 0.159,-1.021 -0.205,-1.6 -0.322,-3.227 -0.322,-4.883 0.001,-5.215 1.056,-10.176 2.952,-14.68 z"/>
      <linearGradient y2="89.474197" x2="42.869701" y1="130.0435" x1="83.439003" gradientUnits="userSpaceOnUse" id="SVGID_2_">
        <stop id="stop51" style="stop-color:#2A2B31" offset="0"/>
        <stop id="stop53" style="stop-color:#3A3E44" offset="0.0235"/>
        <stop id="stop55" style="stop-color:#596168" offset="0.0755"/>
        <stop id="stop57" style="stop-color:#738088" offset="0.1331"/>
        <stop id="stop59" style="stop-color:#889BA3" offset="0.1951"/>
        <stop id="stop61" style="stop-color:#9AB1BA" offset="0.2629"/>
        <stop id="stop63" style="stop-color:#A8C4CC" offset="0.3384"/>
        <stop id="stop65" style="stop-color:#B3D2DA" offset="0.425"/>
        <stop id="stop67" style="stop-color:#BBDCE4" offset="0.5293"/>
        <stop id="stop69" style="stop-color:#BFE2EA" offset="0.6697"/>
        <stop id="stop71" style="stop-color:#C0E4EB" offset="1"/>
      </linearGradient>
      <path style="fill:url(#SVGID_2_)" id="path73" d="m 45.329,91.544 0,17.468 c -0.014,0.151 -0.023,0.306 -0.023,0.464 0,2.043 1.177,3.809 2.89,4.663 l 19.12,11.04 c 0.679,0.04 1.359,0.062 2.047,0.062 8.124,0 15.626,-2.72 21.685,-7.312 l -1.537,0.889 c -0.537,0.354 -1.182,0.561 -1.871,0.561 -0.238,0 -0.467,-0.032 -0.689,-0.08 -0.42,-0.088 -0.813,-0.244 -1.16,-0.469 L 61.824,104.992 C 61.478,104.82 50.528,99.193 45.329,91.544 Z"/>
      <linearGradient y2="118.8306" x2="115.521" y1="118.8306" x1="67.314903" gradientUnits="userSpaceOnUse" id="SVGID_3_">
        <stop id="stop76" style="stop-color:#91272E" offset="0"/>
        <stop id="stop78" style="stop-color:#9D2B30" offset="0.0372"/>
        <stop id="stop80" style="stop-color:#B73434" offset="0.1348"/>
        <stop id="stop82" style="stop-color:#CC3D38" offset="0.2479"/>
        <stop id="stop84" style="stop-color:#DB433A" offset="0.3843"/>
        <stop id="stop86" style="stop-color:#E4473B" offset="0.5679"/>
        <stop id="stop88" style="stop-color:#E7483C" offset="1"/>
      </linearGradient>
      <path style="fill:url(#SVGID_3_)" id="path90" d="m 115.218,102.679 c -0.203,0.934 -0.783,1.726 -1.576,2.204 -0.015,0.009 -22.596,13.046 -22.596,13.046 -6.976,4.035 -13.561,7.312 -21.685,7.312 -0.688,0 -1.368,-0.021 -2.047,-0.062 l 17.5,10.104 c 0.813,0.527 1.782,0.835 2.825,0.835 1.057,0 2.039,-0.312 2.859,-0.854 l 17.065,-9.851 c 0,0 0.296,-0.447 0.425,-0.657 4.451,-6.083 7.424,-15.052 7.531,-23.204 0.003,-0.108 -0.242,0.907 -0.301,1.127 z"/>
      <path style="fill:#332d37" id="path92" d="m 129.91,65.831 c 0,-1.93 -1.049,-3.605 -2.602,-4.508 l -0.055,-0.031 c -0.033,-0.02 -0.066,-0.041 -0.1,-0.059 L 108.582,50.51 c -1.096,-0.594 -2.21,-1.006 -2.21,-1.006 0,0 -0.999,-0.428 -1.375,-0.416 -6.678,0.209 -17.594,2.908 -18.486,7.037 0.081,-0.023 0.362,-0.077 0.445,-0.095 0.221,-0.046 0.447,-0.071 0.683,-0.071 0.689,0 1.334,0.207 1.871,0.559 l 23.988,13.85 c 0.021,0.012 0.043,0.025 0.064,0.037 l 0.035,0.021 c 0.328,0.191 0.615,0.438 0.861,0.721 0.521,0.598 0.842,1.373 0.842,2.229 0,0.021 -0.002,0.039 -0.002,0.059 0.012,0.008 0.021,0.016 0.033,0.021 0,0 -0.028,1.238 0,28.35 0.032,13.889 -7.853,23.587 -7.717,23.579 1.142,-0.663 19.539,-11.28 19.539,-11.28 0.033,-0.019 0.066,-0.04 0.1,-0.06 l 0.055,-0.029 c 0,-0.001 0,-0.001 0,-0.001 1.553,-0.903 2.602,-2.581 2.602,-4.509 0,-0.025 0,-43.654 0,-43.675 z"/>
      <linearGradient y2="67.753799" x2="55.483299" y1="44.275902" x1="98.525902" gradientUnits="userSpaceOnUse" id="SVGID_4_">
        <stop id="stop95" style="stop-color:#2A2B31" offset="0"/>
        <stop id="stop97" style="stop-color:#3A3E44" offset="0.0235"/>
        <stop id="stop99" style="stop-color:#596168" offset="0.0755"/>
        <stop id="stop101" style="stop-color:#738088" offset="0.1331"/>
        <stop id="stop103" style="stop-color:#889BA3" offset="0.1951"/>
        <stop id="stop105" style="stop-color:#9AB1BA" offset="0.2629"/>
        <stop id="stop107" style="stop-color:#A8C4CC" offset="0.3384"/>
        <stop id="stop109" style="stop-color:#B3D2DA" offset="0.425"/>
        <stop id="stop111" style="stop-color:#BBDCE4" offset="0.5293"/>
        <stop id="stop113" style="stop-color:#BFE2EA" offset="0.6697"/>
        <stop id="stop115" style="stop-color:#C0E4EB" offset="1"/>
      </linearGradient>
      <path style="fill:url(#SVGID_4_)" id="path117" d="M 61.822,70.344 85.789,56.506 c 0.28,-0.182 11.748,-6.191 20.256,-6.097 0.854,0.01 1.697,0.042 2.537,0.101 L 90.5,40.073 c -0.82,-0.541 -1.803,-0.857 -2.859,-0.857 -1.043,0 -2.012,0.311 -2.825,0.838 l -18.97,10.953 -3.127,1.807 c -1.896,4.504 -2.951,9.465 -2.951,14.68 0,1.656 0.117,3.283 0.322,4.883 0.279,-0.89 0.91,-1.623 1.732,-2.033 z"/>
    </g>
  </g>
</svg>